<?xml version="1.0" encoding="UTF-8"?>
<svg id="Layer_2" data-name="Layer 2" xmlns="http://www.w3.org/2000/svg" viewBox="0 0 303.21 303.21">
  <defs>
    <style>
      .cls-1 {
        fill-rule: evenodd;
        stroke: #000;
        stroke-linecap: round;
        stroke-linejoin: round;
        stroke-width: .1px;
      }
    </style>
  </defs>
  <g id="Layer_1-2" data-name="Layer 1">
    <path class="cls-1" d="M174.09,269.24c-56.03,10.71-111.83-19.58-133.38-72.4-21.55-52.82-2.85-113.5,44.68-145.04-1,5.64-2.01,11.28-3.01,16.92,10.9,1.94,21.8,3.88,32.69,5.82-.2,1.15-.41,2.29-.61,3.44-.49,2.77-.98,5.53-1.48,8.3l-.12.69c-1.09-.04-2.11-.06-3.06-.06-48.06.23-78.75,51.34-56.36,93.87,22.38,42.53,81.89,46.16,109.29,6.68,3.79,27.26,7.57,54.52,11.36,81.78ZM183.12,83.26c9.31-8.21,10.2-22.42,1.98-31.73-8.21-9.31-22.42-10.2-31.73-1.98-9.31,8.21-10.2,22.42-1.98,31.73,8.21,9.31,22.42,10.2,31.73,1.98ZM144.83,258.28c10.14-4.7,14.54-16.72,9.85-26.86-4.7-10.14-16.72-14.54-26.86-9.85-10.14,4.7-14.54,16.72-9.85,26.86,4.7,10.14,16.72,14.54,26.86,9.85ZM115.17,103.89c-1.76,0-3.52.02-5.28.03-24.96.12-45.47,19.71-46.75,44.63-1.28,24.92,17.14,46.5,41.95,49.17,24.81,2.67,47.39-14.51,51.44-39.13,4.05-24.62-11.84-48.13-36.2-53.55-1.72-.38-3.44-.76-5.16-1.15ZM187.55,250.24l41.79-78.3-54-9.61,12.21,87.91ZM104.5,41.49c-.8,4.49-1.6,8.98-2.4,13.47,5.32.95,10.63,1.89,15.95,2.84,5.58.99,11.16,1.99,16.74,2.98-1.2,6.73-2.39,13.46-3.59,20.18-.53,2.99-1.07,5.99-1.6,8.98,14.31,4.57,24.31,11.93,32.94,24.23,13.82-24.19,39.09-19.16,43.33,8.27.49,3.16,3.44,3.69,4.99.89,16.05-29.01,44.96-15.75,44.13,16.1-.08,3.01-.16,6.02-.23,9.03-.02.8-.04,1.61-.06,2.41-5.29-.94-10.58-1.88-15.87-2.82.08-3.01.16-6.02.24-9.03.06-2.5-.15-5.01-.71-7.44-.25-1.05-.56-2.09-.96-3.09-.33-.82-.71-1.61-1.17-2.37-.33-.54-.7-1.06-1.13-1.53-.27-.3-.57-.57-.89-.81-.17-.12-.34-.24-.54-.31-.1-.04-.2-.07-.31-.09-.22-.04-.44-.02-.66.02-.25.05-.48.12-.72.21-.37.14-.72.32-1.06.52-.48.29-.94.62-1.38.97-.56.46-1.08.96-1.57,1.49-1.24,1.34-2.28,2.86-3.16,4.46-1.23,2.22-2.88,4.21-4.86,5.8-1.55,1.25-3.31,2.25-5.18,2.95-1.51.57-3.1.93-4.71,1.08-1.62.15-3.26.08-4.86-.2-1.6-.28-3.16-.79-4.63-1.49-1.46-.7-2.82-1.59-4.05-2.64-1.51-1.3-2.81-2.85-3.84-4.55-1.31-2.17-2.17-4.61-2.56-7.12-.28-1.81-.73-3.59-1.43-5.28-.28-.67-.59-1.32-.96-1.94-.29-.48-.6-.95-.96-1.39-.41-.5-.86-.97-1.41-1.3-.19-.11-.39-.21-.61-.25-.21-.04-.42-.03-.63,0-.2.04-.39.1-.58.17-.3.11-.59.24-.87.39-.89.47-1.7,1.09-2.43,1.78-1.08,1.01-2.02,2.18-2.85,3.41-.99,1.48-1.83,3.05-2.53,4.69-.72,1.71-1.29,3.48-1.73,5.28-.43,1.78-.72,3.59-.85,5.42-.12,1.74-.09,3.49.09,5.22.18,1.54.35,3.08.53,4.62,26.94,4.79,53.88,9.59,80.82,14.38-18,33.73-36.01,67.46-54.01,101.2,60.38-26.49,87.99-96.79,61.79-157.29-26.21-60.5-96.39-88.44-157-62.5ZM.05,303.16h303.11V.05H.05v303.11Z"/>
  </g>
</svg>