<?xml version="1.0" encoding="UTF-8"?>
<svg id="Layer_2" data-name="Layer 2" xmlns="http://www.w3.org/2000/svg" viewBox="0 0 253.2 379.8">
  <defs>
    <style>
      .cls-1 {
        fill: #020202;
        fill-rule: evenodd;
      }
    </style>
  </defs>
  <g id="Layer_1-2" data-name="Layer 1">
    <path class="cls-1" d="M143.18,134.09l37.74,6.72-29.2,54.72-8.53-61.43ZM101.14,93.26c-1.23,0-2.46.01-3.69.02-17.44.08-31.78,13.77-32.67,31.19-.89,17.42,11.97,32.5,29.31,34.36,17.34,1.86,33.12-10.14,35.95-27.35,2.83-17.21-8.27-33.63-25.3-37.42-1.2-.27-2.4-.53-3.6-.8ZM93.68,49.65c-.56,3.14-1.12,6.28-1.68,9.42,3.72.66,7.43,1.32,11.15,1.98,3.9.69,7.8,1.39,11.7,2.08-.84,4.7-1.67,9.4-2.51,14.1-.37,2.09-.74,4.18-1.12,6.28,10,3.19,16.99,8.34,23.02,16.93,9.66-16.91,27.32-13.39,30.28,5.78.34,2.21,2.4,2.58,3.48.62,11.22-20.27,31.42-11.01,30.84,11.25-.05,2.1-.11,4.21-.16,6.31-.01.56-.03,1.12-.04,1.68-3.7-.66-7.39-1.32-11.09-1.97.05-2.1.11-4.21.16-6.31.05-1.75-.1-3.5-.5-5.2-.17-.73-.39-1.46-.67-2.16-.23-.57-.5-1.13-.82-1.65-.23-.38-.49-.74-.79-1.07-.19-.21-.39-.4-.62-.57-.12-.09-.24-.17-.37-.22-.07-.03-.14-.05-.22-.06-.15-.03-.31-.01-.46.02-.17.03-.34.08-.5.15-.26.1-.5.22-.74.37-.34.2-.66.43-.96.68-.39.32-.75.67-1.1,1.04-.87.94-1.59,2-2.21,3.11-.86,1.55-2.01,2.94-3.4,4.05-1.09.87-2.31,1.57-3.62,2.06-1.06.4-2.17.65-3.29.76-1.13.11-2.28.06-3.4-.14-1.12-.2-2.21-.55-3.24-1.04-1.02-.49-1.97-1.11-2.83-1.85-1.06-.91-1.97-1.99-2.68-3.18-.91-1.52-1.52-3.22-1.79-4.98-.19-1.26-.51-2.51-1-3.69-.19-.47-.41-.92-.67-1.36-.2-.34-.42-.66-.67-.97-.28-.35-.6-.68-.99-.91-.13-.08-.27-.15-.43-.18-.15-.03-.29-.02-.44,0-.14.02-.27.07-.41.12-.21.08-.41.17-.61.27-.62.33-1.18.76-1.7,1.25-.76.71-1.41,1.52-1.99,2.38-.69,1.03-1.28,2.13-1.77,3.28-.51,1.19-.9,2.43-1.21,3.69-.3,1.24-.5,2.51-.59,3.78-.09,1.22-.07,2.44.06,3.65.12,1.08.25,2.15.37,3.23,18.83,3.35,37.65,6.7,56.48,10.05-12.58,23.57-25.16,47.14-37.74,70.72,42.19-18.51,61.49-67.64,43.18-109.91-18.31-42.28-67.35-61.8-109.71-43.68ZM126.45,77.46c-5.74-6.51-5.12-16.43,1.39-22.17,6.51-5.74,16.43-5.12,22.17,1.39,5.74,6.51,5.12,16.43-1.39,22.17-6.51,5.74-16.43,5.12-22.17-1.39ZM134.38,151.66c-19.14,27.59-60.73,25.05-76.37-4.67-15.64-29.72,5.81-65.44,39.39-65.6.66,0,1.37.01,2.14.04.03-.16.06-.32.09-.48.34-1.93.69-3.86,1.03-5.8.14-.8.29-1.6.43-2.4-7.62-1.36-15.23-2.71-22.85-4.07.7-3.94,1.4-7.88,2.1-11.83-33.22,22.04-46.28,64.44-31.22,101.35,15.06,36.91,54.05,58.08,93.21,50.59-2.65-19.05-5.29-38.1-7.94-57.15ZM103.1,194.26c-3.28-7.08-.2-15.49,6.88-18.77,7.08-3.28,15.49-.2,18.77,6.88,3.28,7.08.2,15.49-6.88,18.77-7.08,3.28-15.49.2-18.77-6.88ZM0,379.8h253.2V0H0v379.8ZM223.61,336.48v3.55h6.18v-3.55h-6.18ZM229.79,336.07h2.4v-2.29h7.78v9.11h-5.61v-2.75h3.2v-3.58h-5.38v7.58h-2.4v-1.37h-8.58v-8.99h8.58v2.29ZM184.08,333.78v26.27h24.14v-26.27h7.5v32.84h-39.15v-32.84h7.5ZM51.26,333.78H13.23v32.84h38.03v-13.41h-5.63v-6.02h5.63v-13.41ZM20.73,353.21h23.03v6.8h-23.03v-6.8ZM20.73,340.39h23.03v6.8h-23.03v-6.8ZM64.24,346.59v.59h19.52v6.02h-19.52v6.8h25.15v6.62h-32.65v-32.84h32.65v6.62h-25.15v6.2ZM171.1,353.2v13.42h-39.29v-11h6.6v4.16s26.08,0,26.08,0v-6.58h-32.69v-10.73s0-8.69,0-8.69h39.29v10.39h-6.61v-3.78h-26.07v6.8s32.68,0,32.68,0v6.01ZM106.66,366.62v-26.23h-14.68v-6.62h36.85v6.62h-14.68v26.23h-7.5ZM227.5,352.15v2.75h-6.29v-9.15h18.77v9.15h-6.18v-2.75h3.78v-3.66h-13.96v3.66h3.89ZM223.61,363.83h13.96v-3.89h-13.96v3.89ZM221.2,357.19h18.77v9.38h-18.77v-9.38Z"/>
  </g>
</svg>