<?xml version="1.0" encoding="UTF-8"?>
<svg id="Layer_2" data-name="Layer 2" xmlns="http://www.w3.org/2000/svg" viewBox="0 0 226.74 32.84">
  <defs>
    <style>
      .cls-1, .cls-2 {
        fill: #020202;
      }

      .cls-2 {
        fill-rule: evenodd;
      }
    </style>
  </defs>
  <g id="Layer_1-2" data-name="Layer 1">
    <g>
      <polygon class="cls-1" points="93.43 32.84 93.43 6.62 78.75 6.62 78.75 0 115.61 0 115.61 6.62 100.93 6.62 100.93 32.84 93.43 32.84"/>
      <polygon class="cls-1" points="157.87 13.41 125.18 13.41 125.19 8.7 125.19 6.61 151.26 6.61 151.26 10.39 157.87 10.39 157.87 0 118.58 0 118.58 8.69 118.57 19.42 151.26 19.42 151.26 26 125.17 26 125.18 21.84 118.58 21.84 118.58 26 118.58 32.84 157.87 32.84 157.87 19.42 157.87 13.41"/>
      <polygon class="cls-1" points="51.01 12.82 51.01 13.41 70.54 13.41 70.54 19.43 51.01 19.43 51.01 26.23 76.16 26.23 76.16 32.84 43.51 32.84 43.51 0 76.16 0 76.16 6.62 51.01 6.62 51.01 12.82"/>
      <path class="cls-2" d="M7.5,6.62h23.03v6.8H7.5v-6.8ZM7.5,26.23h23.03v-6.8H7.5v6.8ZM38.03,0H0v32.84h38.03v-13.41h-5.63v-6.02h5.63V0Z"/>
      <polygon class="cls-1" points="163.35 0 163.35 32.84 202.49 32.84 202.49 0 194.99 0 194.99 26.27 170.85 26.27 170.85 0 163.35 0"/>
      <path class="cls-1" d="M216.55,2.7v3.55h-6.18v-3.55h6.18ZM216.55,0h-8.58v8.99h8.58v1.37h2.4V2.78h5.38v3.58h-3.2v2.75h5.61V0h-7.78v2.29h-2.4V0Z"/>
      <polygon class="cls-1" points="214.27 18.38 214.27 21.12 207.97 21.12 207.97 11.97 226.74 11.97 226.74 21.12 220.56 21.12 220.56 18.38 224.34 18.38 224.34 14.71 210.38 14.71 210.38 18.38 214.27 18.38"/>
      <path class="cls-1" d="M210.38,26.16h13.96v3.89h-13.96v-3.89ZM207.97,32.79h18.77v-9.38h-18.77v9.38Z"/>
    </g>
  </g>
</svg>