<?xml version="1.0" encoding="UTF-8"?>
<svg version="1.1" xmlns="http://www.w3.org/2000/svg" width="1686" height="1004">
<path d="M0 0 C85.8 0 171.6 0 260 0 C260 32.01 260 64.02 260 97 C246.8 97 233.6 97 220 97 C220 110.86 220 124.72 220 139 C233.2 139 246.4 139 260 139 C260 171.01 260 203.02 260 236 C174.2 236 88.4 236 0 236 C0 158.12 0 80.24 0 0 Z M55 49 C55 64.51 55 80.02 55 96 C104.5 96 154 96 205 96 C205 80.49 205 64.98 205 49 C155.5 49 106 49 55 49 Z M55 140 C55 155.84 55 171.68 55 188 C104.5 188 154 188 205 188 C205 172.16 205 156.32 205 140 C155.5 140 106 140 55 140 Z " fill="#000000" transform="translate(855,70)"/>
<path d="M0 0 C85.47 0 170.94 0 259 0 C259 32.01 259 64.02 259 97 C245.8 97 232.6 97 219 97 C219 110.86 219 124.72 219 139 C232.2 139 245.4 139 259 139 C259 171.01 259 203.02 259 236 C173.53 236 88.06 236 0 236 C0 158.12 0 80.24 0 0 Z M54 48 C54 63.84 54 79.68 54 96 C103.83 96 153.66 96 205 96 C205 80.16 205 64.32 205 48 C155.17 48 105.34 48 54 48 Z M54 140 C54 155.84 54 171.68 54 188 C103.83 188 153.66 188 205 188 C205 172.16 205 156.32 205 140 C155.17 140 105.34 140 54 140 Z " fill="#000000" transform="translate(286,332)"/>
<path d="M0 0 C85.8 0 171.6 0 260 0 C260 22.77 260 45.54 260 69 C244.16 69 228.32 69 212 69 C212 62.07 212 55.14 212 48 C158.21 48 104.42 48 49 48 C49 53.61 49 59.22 49 65 C48.67 73.25 48.34 81.5 48 90 C117.96 90 187.92 90 260 90 C260 138.18 260 186.36 260 236 C174.2 236 88.4 236 0 236 C0 209.6 0 183.2 0 156 C15.84 156 31.68 156 48 156 C48 165.9 48 175.8 48 186 C102.12 186 156.24 186 212 186 C212 168.84 212 151.68 212 134 C142.04 134 72.08 134 0 134 C0 89.78 0 45.56 0 0 Z " fill="#000000" transform="translate(855,332)"/>
<path d="M0 0 C85.8 0 171.6 0 260 0 C260 78.21 260 156.42 260 237 C174.2 237 88.4 237 0 237 C0 158.79 0 80.58 0 0 Z M55 48 C55 94.2 55 140.4 55 188 C104.83 188 154.66 188 206 188 C206 141.8 206 95.6 206 48 C156.17 48 106.34 48 55 48 Z " fill="#000000" transform="translate(1140,70)"/>
<path d="M0 0 C85.8 0 171.6 0 260 0 C260 46.2 260 92.4 260 140 C233.27 140 206.54 140 179 140 C186.73716287 150.96310756 186.73716287 150.96310756 194.48046875 161.921875 C194.94259766 162.57542969 195.40472656 163.22898438 195.88085938 163.90234375 C196.76322601 165.15005501 197.64604987 166.39744304 198.52929688 167.64453125 C198.98755859 168.29292969 199.44582031 168.94132813 199.91796875 169.609375 C200.66228149 170.60094604 200.66228149 170.60094604 201.42163086 171.61254883 C203 174 203 174 204.50219727 177.36206055 C206.38802658 181.2715722 208.29800788 184.58574493 212 187 C219.85802259 189.30314386 228.48747706 188.53284745 236.5625 188.3125 C244.296875 188.209375 252.03125 188.10625 260 188 C260 203.84 260 219.68 260 236 C242.80223386 236.76206738 242.80223386 236.76206738 235.39648438 236.92773438 C230.36545065 237.04081768 225.34106048 237.17356896 220.31518555 237.43334961 C193.27527518 238.79492978 193.27527518 238.79492978 186.25537109 234.20571899 C181.97298297 229.88188574 179.44787947 224.99327787 177.12742615 219.42240906 C175.28207889 215.45746118 172.6029066 212.20219049 169.875 208.8125 C165.46567466 203.03929981 161.29056621 197.14224985 157.20996094 191.13330078 C153.77166007 186.0836793 150.22152901 181.12541682 146.625 176.1875 C140.42234123 167.66313934 134.45692303 158.98756565 128.5546875 150.25317383 C128.04164063 149.50962646 127.52859375 148.7660791 127 148 C126.76456985 147.40987625 126.52913971 146.8197525 126.28657532 146.21174622 C125.10852882 143.80176669 124.18750771 142.58805486 122 141 C116.53121694 139.91594736 111.09978894 140.04469041 105.54296875 140.09765625 C103.91341663 140.08826902 102.28387955 140.07580989 100.65437317 140.06040955 C96.37478932 140.02819376 92.09627742 140.03762167 87.81665039 140.05578613 C83.44600713 140.06694712 79.07563792 140.03863778 74.70507812 140.01367188 C66.13649531 139.97053186 57.56864225 139.97139313 49 140 C49.00261841 140.69357101 49.00523682 141.38714203 49.00793457 142.10173035 C49.07217413 162.08968513 48.86092072 182.06506236 48.53643799 202.04992676 C48.46341285 206.58433524 48.39386406 211.1187984 48.32368469 215.65325165 C48.21835028 222.43554482 48.10879564 229.21775753 48 236 C32.16 236 16.32 236 0 236 C0 158.12 0 80.24 0 0 Z M49 49 C49 64.51 49 80.02 49 96 C102.79 96 156.58 96 212 96 C212 80.49 212 64.98 212 49 C158.21 49 104.42 49 49 49 Z " fill="#000000" transform="translate(570,70)"/>
<path d="M0 0 C85.8 0 171.6 0 260 0 C260 15.84 260 31.68 260 48 C192.35 48 124.7 48 55 48 C55 63.84 55 79.68 55 96 C109.78 96 164.56 96 221 96 C221 110.52 221 125.04 221 140 C166.22 140 111.44 140 55 140 C55 155.84 55 171.68 55 188 C122.65 188 190.3 188 260 188 C260 203.84 260 219.68 260 236 C174.2 236 88.4 236 0 236 C0 158.12 0 80.24 0 0 Z " fill="#000000" transform="translate(1140,332)"/>
<path d="M0 0 C85.8 0 171.6 0 260 0 C260 77.88 260 155.76 260 236 C241.85 236 223.7 236 205 236 C205 204.32 205 172.64 205 140 C155.5 140 106 140 55 140 C55 171.68 55 203.36 55 236 C36.85 236 18.7 236 0 236 C0 158.12 0 80.24 0 0 Z M55 48 C55 63.84 55 79.68 55 96 C104.5 96 154 96 205 96 C205 80.16 205 64.32 205 48 C155.5 48 106 48 55 48 Z " fill="#000000" transform="translate(570,332)"/>
<path d="M0 0 C85.8 0 171.6 0 260 0 C260 77.88 260 155.76 260 236 C241.85 236 223.7 236 205 236 C205 204.32 205 172.64 205 140 C155.5 140 106 140 55 140 C55 171.68 55 203.36 55 236 C36.85 236 18.7 236 0 236 C0 158.12 0 80.24 0 0 Z M55 48 C55 63.84 55 79.68 55 96 C104.5 96 154 96 205 96 C205 80.16 205 64.32 205 48 C155.5 48 106 48 55 48 Z " fill="#000000" transform="translate(285,70)"/>
<path d="M0 0 C36.733125 -0.268125 73.46625 -0.53625 111.3125 -0.8125 C128.70384644 -0.99002808 128.70384644 -0.99002808 146.4465332 -1.17114258 C160.61560059 -1.2298584 160.61560059 -1.2298584 167.25090027 -1.24076843 C171.88124221 -1.25287112 176.50964263 -1.30153961 181.13945007 -1.3724823 C187.05134389 -1.46186607 192.96042787 -1.48835086 198.8729347 -1.46993959 C201.03878314 -1.47378722 203.20473285 -1.49945296 205.36999953 -1.5497967 C222.37501577 -1.92670371 222.37501577 -1.92670371 227.59386253 2.76482582 C230.02812336 5.40137557 231.99638335 8.23263743 233.87696397 11.2812115 C235.81283596 14.24403231 238.17177373 16.842971 240.5 19.5 C241.40811338 20.57003597 242.31458838 21.64146653 243.21875 22.71484375 C245.15318869 25.0013117 247.09124104 27.28466298 249.03125 29.56640625 C249.52818359 30.15164063 250.02511719 30.736875 250.53710938 31.33984375 C251.48539782 32.45651986 252.43456281 33.57245241 253.38476562 34.6875 C254.59846105 36.11773179 255.79974152 37.55847334 257 39 C257.53358911 39.59185404 258.06717821 40.18370808 258.61693668 40.79349709 C260.4312977 43.68808103 260.40123792 45.67514542 260.44151306 49.08139038 C260.47371193 50.95247467 260.47371193 50.95247467 260.50656128 52.86135864 C260.51508174 54.24139179 260.52321697 55.62142737 260.53100586 57.00146484 C260.54980962 58.45716807 260.5697509 59.91285698 260.59074402 61.36853027 C260.65379614 66.14923121 260.68495931 70.92993402 260.71484375 75.7109375 C260.72699218 77.36118339 260.73934312 79.0114278 260.751894 80.66167068 C260.80905178 88.42188311 260.85173135 96.1820103 260.87672991 103.94239271 C260.90598315 112.87448355 260.98475949 121.80433108 261.10623258 130.7356323 C261.19706569 137.65393928 261.24116961 144.57160799 261.25107294 151.49049914 C261.25809064 155.61556338 261.28449597 159.73823228 261.36045647 163.86265182 C261.88033235 193.60169525 261.88033235 193.60169525 254.19750977 201.78759766 C252.20348481 203.6442212 250.13728558 205.30005446 248 207 C246.47603976 208.77500295 244.98773534 210.5822926 243.5625 212.4375 C239.27850571 217.72161796 234.82654298 222.8504406 230.34008789 227.96264648 C229.80633545 228.57309814 229.27258301 229.1835498 228.72265625 229.8125 C228.00734741 230.62654297 228.00734741 230.62654297 227.27758789 231.45703125 C225.80195399 233.18505399 225.80195399 233.18505399 224 236 C221.01680336 236.29410093 218.24112323 236.39090521 215.25558472 236.36076355 C213.88427399 236.36461563 213.88427399 236.36461563 212.48526001 236.36854553 C209.39348139 236.37353525 206.30218373 236.35690215 203.21044922 236.34057617 C200.96744871 236.33965776 198.72444733 236.34005663 196.48144722 236.34167194 C190.45649649 236.34235124 184.43172329 236.32492159 178.40681458 236.30384064 C172.76021748 236.28679816 167.1136643 236.2859536 161.46704102 236.28381348 C144.93633702 236.26805047 128.40566629 236.22616729 111.875 236.1875 C74.95625 236.125625 38.0375 236.06375 0 236 C0 158.12 0 80.24 0 0 Z M55 48 C55 94.2 55 140.4 55 188 C104.5 188 154 188 205 188 C205 141.8 205 95.6 205 48 C155.5 48 106 48 55 48 Z " fill="#000000" transform="translate(1426,332)"/>
<path d="M0 0 C18.15 0 36.3 0 55 0 C64.95166163 11.05740181 64.95166163 11.05740181 68.375 15.375 C72.05636689 19.92860712 75.92774473 24.23582516 79.91357422 28.51904297 C82.90412641 31.75176204 85.73771685 35.06687666 88.5 38.5 C92.61652611 43.61245985 96.9922884 48.42576554 101.44921875 53.23828125 C105.65098409 57.78751264 109.69442513 62.46367084 113.70703125 67.1796875 C119.5344906 74.02119707 125.45656731 80.74252108 131.5546875 87.34375 C135.70388665 91.85086728 139.70700804 96.47519731 143.671875 101.14453125 C148.73650085 107.09922748 153.84710906 112.97762653 159.1875 118.6875 C162.75329112 122.49999544 166.17100786 126.36034558 169.4375 130.4375 C174.02080676 136.1478494 178.99251839 141.44658578 183.99609375 146.78515625 C190.99557574 154.25457574 197.44054749 162.12865699 204 170 C204.495 85.85 204.495 85.85 205 0 C223.15 0 241.3 0 260 0 C260 78.21 260 156.42 260 237 C235.91 237 211.82 237 187 237 C183.04 232.38 179.08 227.76 175 223 C171.57000086 219.20377381 171.57000086 219.20377381 168.1328125 215.4140625 C165.90700396 212.89474074 163.7938917 210.30727749 161.6875 207.6875 C157.79744069 202.87414563 153.67128166 198.3523855 149.44433594 193.83886719 C145.52121407 189.62606859 141.88103586 185.23604648 138.27734375 180.74609375 C135.78173531 177.73680948 133.16234857 174.86061346 130.5 172 C126.23079221 167.41242561 122.24241261 162.66556996 118.3125 157.78125 C115.35823636 154.22814914 112.23086576 150.8597632 109.08374023 147.47827148 C106.11284372 144.2670095 103.30038923 140.97372185 100.5625 137.5625 C97.19653735 133.37762693 93.66823983 129.41685602 90 125.5 C85.54451801 120.74254622 81.36866634 115.84181962 77.28515625 110.7578125 C73.87055702 106.63694573 70.23161788 102.73557672 66.59375 98.8125 C63.75227972 95.73138765 60.98473983 92.59480703 58.2421875 89.42578125 C57.51888012 88.59556994 56.7785963 87.7785963 56 87 C55.67 136.5 55.34 186 55 237 C36.85 237 18.7 237 0 237 C0 158.79 0 80.58 0 0 Z " fill="#000000" transform="translate(1426,70)"/>
<path d="M0 0 C85.8 0 171.6 0 260 0 C260 15.84 260 31.68 260 48 C192.35 48 124.7 48 55 48 C55 94.2 55 140.4 55 188 C122.65 188 190.3 188 260 188 C260 203.84 260 219.68 260 236 C174.2 236 88.4 236 0 236 C0 158.12 0 80.24 0 0 Z " fill="#000000" transform="translate(0,70)"/>
<path d="M0 0 C15.84 0 31.68 0 48 0 C51.96 4.62 55.92 9.24 60 14 C63.81573457 18.18387678 63.81573457 18.18387678 67.640625 22.359375 C69.99221594 24.99128804 72.22331262 27.68939509 74.4375 30.4375 C78.09700528 34.97477021 81.94995021 39.26030973 85.91821289 43.52368164 C88.86917437 46.71306313 91.65985753 49.9835583 94.375 53.375 C98.98571639 59.10522487 103.97756638 64.43085078 109.00390625 69.79296875 C113.38116714 74.4639332 117.5514289 79.29747541 121.69921875 84.171875 C127.53018213 91.01518479 133.45408334 97.73983217 139.5546875 104.34375 C143.71504527 108.86298847 147.72685535 113.50178609 151.70703125 118.1796875 C157.55133617 125.04047619 163.4797117 131.78552401 169.625 138.37890625 C171.84885701 140.83319581 173.93103516 143.41379395 176 146 C176.33 97.82 176.66 49.64 177 0 C192.84 0 208.68 0 225 0 C225 67.65 225 135.3 225 205 C204.21 205 183.42 205 162 205 C156.21610599 198.63771659 150.71263461 192.46822246 145.34765625 185.81640625 C142.37856517 182.25448501 139.24219542 178.87195894 136.08398438 175.47851562 C133.1129881 172.26718772 130.30046168 168.97381211 127.5625 165.5625 C124.19653735 161.37762693 120.66823983 157.41685602 117 153.5 C112.54127805 148.73908666 108.36202376 143.83532437 104.27734375 138.74609375 C101.78173531 135.73680948 99.16234857 132.86061346 96.5 130 C92.23079221 125.41242561 88.24241261 120.66556996 84.3125 115.78125 C81.35757747 112.22735668 78.22955431 108.85815456 75.08154297 105.47607422 C72.13068108 102.28675885 69.34007012 99.01635132 66.625 95.625 C61.04080069 88.83340624 54.98290388 82.44312726 49 76 C48.67 118.57 48.34 161.14 48 205 C32.16 205 16.32 205 0 205 C0 137.35 0 69.7 0 0 Z " fill="#000000" transform="translate(552,731)"/>
<path d="M0 0 C73.92 0 147.84 0 224 0 C224 13.86 224 27.72 224 42 C194.63 42 165.26 42 135 42 C135 95.79 135 149.58 135 205 C119.49 205 103.98 205 88 205 C88 151.21 88 97.42 88 42 C58.96 42 29.92 42 0 42 C0 28.14 0 14.28 0 0 Z " fill="#000000" transform="translate(800,731)"/>
<path d="M0 0 C52.8 0 105.6 0 160 0 C160 9.9 160 19.8 160 30 C118.42 30 76.84 30 34 30 C34 39.57 34 49.14 34 59 C67.66 59 101.32 59 136 59 C136 67.91 136 76.82 136 86 C102.34 86 68.68 86 34 86 C34 95.57 34 105.14 34 115 C75.58 115 117.16 115 160 115 C160 124.9 160 134.8 160 145 C107.2 145 54.4 145 0 145 C0 97.15 0 49.3 0 0 Z " fill="#000000" transform="translate(1526,731)"/>
<path d="M0 0 C41.91 0 83.82 0 127 0 C127 12.54 127 25.08 127 38 C119.08 38 111.16 38 103 38 C103 33.71 103 29.42 103 25 C77.59 25 52.18 25 26 25 C26 31.93 26 38.86 26 46 C59.33 46 92.66 46 127 46 C127 68.77 127 91.54 127 115 C85.09 115 43.18 115 0 115 C0 101.8 0 88.6 0 75 C8.58 75 17.16 75 26 75 C26 79.62 26 84.24 26 89 C51.41 89 76.82 89 103 89 C103 82.4 103 75.8 103 69 C69.01 69 35.02 69 0 69 C0 46.23 0 23.46 0 0 Z " fill="#000000" transform="translate(1013,590)"/>
<path d="M0 0 C41.91 0 83.82 0 127 0 C127 11.55 127 23.1 127 35 C118.75 35 110.5 35 102 35 C102 31.7 102 28.4 102 25 C76.59 25 51.18 25 25 25 C25 30.94 25 36.88 25 43 C26.89467262 42.99666908 26.89467262 42.99666908 28.82762146 42.99327087 C40.70323839 42.97304164 52.57885186 42.95802892 64.45448208 42.94818783 C70.56056369 42.94295844 76.66663144 42.9358598 82.77270508 42.92456055 C88.66005147 42.91373363 94.54738449 42.90772358 100.43474007 42.90512276 C102.68632277 42.90326815 104.93790469 42.89964687 107.18948174 42.89426994 C110.33133427 42.88706211 113.47313083 42.88600895 116.61499023 42.88647461 C118.02623421 42.8810817 118.02623421 42.8810817 119.46598816 42.87557983 C125.88594784 42.88594784 125.88594784 42.88594784 127 44 C127.09432985 46.20867831 127.11742431 48.42041521 127.11352539 50.63110352 C127.11364593 51.33498923 127.11376646 52.03887495 127.11389065 52.76409054 C127.11314167 55.05239411 127.10551417 57.34061717 127.09765625 59.62890625 C127.09618678 61.03771933 127.0951661 62.44653295 127.09460449 63.85534668 C127.08935216 69.09107276 127.07539107 74.32678716 127.0625 79.5625 C127.041875 91.256875 127.02125 102.95125 127 115 C85.09 115 43.18 115 0 115 C0 101.8 0 88.6 0 75 C8.25 75 16.5 75 25 75 C25 79.62 25 84.24 25 89 C50.41 89 75.82 89 102 89 C102 81.41 102 73.82 102 66 C68.34 66 34.68 66 0 66 C0 44.22 0 22.44 0 0 Z " fill="#000000" transform="translate(418,590)"/>
<path d="M0 0 C11.22 0 22.44 0 34 0 C42.02858678 25.64977075 49.85662692 51.35799637 57.59039688 77.0979538 C58.31437556 79.50623898 59.03942016 81.91420096 59.76473999 84.32208252 C60.91774205 88.15046548 62.06782525 91.97971326 63.21560287 95.80966568 C63.64508784 97.24138593 64.07548026 98.6728343 64.50680923 100.10400009 C65.09999958 102.0731209 65.68974068 104.04324169 66.27856445 106.01367188 C66.61241653 107.12609253 66.94626862 108.23851318 67.29023743 109.38464355 C68 112 68 112 68 114 C75.59 114 83.18 114 91 114 C91.40669922 112.31583984 91.81339844 110.63167969 92.23242188 108.89648438 C94.02211226 101.74556548 96.128376 94.704537 98.28125 87.65625 C98.69615219 86.29014539 99.11079843 84.92396302 99.52520752 83.55770874 C100.62158151 79.94572763 101.7215476 76.33485035 102.8223114 72.72420502 C103.95687119 69.00052784 105.08808421 65.27583413 106.21972656 61.55126953 C108.61716511 53.66304133 111.01940158 45.77628058 113.42373657 37.89015198 C113.96576236 36.11229992 114.50766559 34.3344105 115.04956055 32.55651855 C118.35820774 21.70182654 121.67652349 10.85017331 125 0 C136.22 0 147.44 0 159 0 C158.27495349 5.07532557 157.37571585 9.75084034 156.01318359 14.64868164 C155.81252509 15.38324963 155.61186659 16.11781761 155.40512753 16.87464523 C154.74030939 19.30428803 154.06941633 21.73220826 153.3984375 24.16015625 C152.92422229 25.88806118 152.45036844 27.61606532 151.97685242 29.34416199 C150.70963481 33.96450719 149.43706341 38.58336173 148.16334915 43.20191956 C147.11319748 47.01246889 146.06621624 50.823886 145.01931095 54.63532829 C136.74086203 84.77396597 128.39195866 114.89276687 120 145 C93.27 145 66.54 145 39 145 C28.23919461 105.88210366 28.23919461 105.88210366 23.72195625 89.44539833 C20.15438535 76.4643705 16.58368812 63.4842285 13.00114441 50.50732422 C11.59922862 45.42891061 10.19982114 40.34980713 8.80127048 35.27046585 C7.87321876 31.90050914 6.94374707 28.53095756 6.01101685 25.16229248 C4.98507169 21.45696114 3.9649357 17.75004504 2.9453125 14.04296875 C2.64327408 12.95615311 2.34123566 11.86933746 2.03004456 10.74958801 C1.75990036 9.76383286 1.48975616 8.7780777 1.21142578 7.76245117 C0.97577911 6.90898605 0.74013245 6.05552094 0.49734497 5.17619324 C0 3 0 3 0 0 Z " fill="#000000" transform="translate(1358,731)"/>
<path d="M0 0 C41.91 0 83.82 0 127 0 C127 37.95 127 75.9 127 115 C85.09 115 43.18 115 0 115 C0 77.05 0 39.1 0 0 Z M27 25 C27 46.45 27 67.9 27 90 C50.43 90 73.86 90 98 90 C98 68.55 98 47.1 98 25 C74.57 25 51.14 25 27 25 Z " fill="#000000" transform="translate(737,590)"/>
<path d="M0 0 C41.91 0 83.82 0 127 0 C127 37.95 127 75.9 127 115 C85.09 115 43.18 115 0 115 C0 77.05 0 39.1 0 0 Z M28 25 C28.33 46.78 28.66 68.56 29 91 C52.1 91 75.2 91 99 91 C99 69.22 99 47.44 99 25 C75.57 25 52.14 25 28 25 Z " fill="#000000" transform="translate(140,590)"/>
<path d="M0 0 C15.84 0 31.68 0 48 0 C48 67.65 48 135.3 48 205 C32.16 205 16.32 205 0 205 C0 137.35 0 69.7 0 0 Z " fill="#000000" transform="translate(476,731)"/>
<path d="M0 0 C9.57 0 19.14 0 29 0 C35 7 35 7 35 9 C35.66 9 36.32 9 37 9 C38.41438406 10.57286684 39.75604401 12.21139996 41.0625 13.875 C44.86177163 18.62561413 48.79972027 23.18314808 52.89453125 27.6796875 C54.72917685 29.70154184 56.52768786 31.74678522 58.3125 33.8125 C60.91793126 36.81086173 63.59856008 39.72817133 66.30786133 42.63208008 C71.34616217 48.03457652 76.1457154 53.53716372 80.7734375 59.30078125 C83.92754051 63.12443946 87.27383281 66.75817563 90.640625 70.39453125 C93.17412456 73.19228656 95.58369145 76.10042973 98 79 C98.33 52.93 98.66 26.86 99 0 C108.24 0 117.48 0 127 0 C127 37.95 127 75.9 127 115 C114.79 115 102.58 115 90 115 C87.03 111.37 84.06 107.74 81 104 C78.01876314 100.64610854 75.02690292 97.31166382 72 94 C66.53064309 88.00135048 61.18768482 81.91842181 55.9699707 75.70068359 C52.77152985 71.8916882 49.50123954 68.15943528 46.14453125 64.48828125 C45 63 45 63 45 61 C44.34 61 43.68 61 43 61 C41.48259024 59.30096977 40.034872 57.53927277 38.625 55.75 C35.89325736 52.29649258 33.13870272 49.08505673 30 46 C29.98969254 46.84968857 29.97938507 47.69937714 29.96876526 48.57481384 C29.87096311 56.56543941 29.76847382 64.55598793 29.66066074 72.54648495 C29.60539417 76.65490417 29.55196835 80.76333046 29.50268555 84.87182617 C29.45509687 88.83353126 29.40275633 92.79514718 29.34705925 96.75674629 C29.32661069 98.27145747 29.30790183 99.78619312 29.29092598 101.30094719 C29.26693701 103.41548426 29.2368755 105.52985135 29.20532227 107.64428711 C29.18977798 108.85007919 29.1742337 110.05587128 29.15821838 111.29820251 C29 114 29 114 28 115 C18.76 115 9.52 115 0 115 C0 77.05 0 39.1 0 0 Z " fill="#000000" transform="translate(279,590)"/>
<path d="M0 0 C52.47 0 104.94 0 159 0 C159 9.9 159 19.8 159 30 C138.21 30 117.42 30 96 30 C96 67.95 96 105.9 96 145 C85.11 145 74.22 145 63 145 C63 107.05 63 69.1 63 30 C42.21 30 21.42 30 0 30 C0 20.1 0 10.2 0 0 Z " fill="#000000" transform="translate(1140,731)"/>
<path d="M0 0 C8.91 0 17.82 0 27 0 C28.82238662 1.82238662 28.11997696 4.34756083 28.12442017 6.7724762 C28.12082489 7.60109665 28.11722961 8.4297171 28.11352539 9.28344727 C28.11367142 10.15166107 28.11381744 11.01987488 28.1139679 11.91439819 C28.11326846 14.79842586 28.10547463 17.6823898 28.09765625 20.56640625 C28.09579218 22.56037867 28.09436823 24.55435155 28.09336853 26.54832458 C28.08954248 31.80745702 28.07971145 37.06656203 28.06866455 42.32568359 C28.05665815 48.6298745 28.05204861 54.93407456 28.04621124 61.23827362 C28.03649974 70.82553485 28.01734379 80.41273584 28 90 C50.77 90 73.54 90 97 90 C97 60.3 97 30.6 97 0 C106.57 0 116.14 0 126 0 C126 37.95 126 75.9 126 115 C84.42 115 42.84 115 0 115 C0 77.05 0 39.1 0 0 Z " fill="#000000" transform="translate(876,590)"/>
<path d="M0 0 C42.24 0 84.48 0 128 0 C128 8.25 128 16.5 128 25 C95 25 62 25 28 25 C28 46.78 28 68.56 28 91 C35.13496094 90.98839844 42.26992188 90.97679687 49.62109375 90.96484375 C54.12825611 90.95973713 58.63541493 90.95492337 63.14257812 90.95117188 C70.30412533 90.9451829 77.46565981 90.93808116 84.62719727 90.92456055 C90.39783429 90.91373347 96.16845768 90.90772355 101.93910408 90.90512276 C104.14602943 90.90326818 106.352954 90.89964696 108.55987358 90.89426994 C111.63946041 90.8870619 114.71899014 90.88600896 117.79858398 90.88647461 C118.72071182 90.88287933 119.64283966 90.87928406 120.59291077 90.87557983 C126.88594784 90.88594784 126.88594784 90.88594784 128 92 C128 99.59 128 107.18 128 115 C85.76 115 43.52 115 0 115 C0 77.05 0 39.1 0 0 Z " fill="#000000" transform="translate(0,590)"/>
<path d="M0 0 C41.58 0 83.16 0 126 0 C126 8.25 126 16.5 126 25 C93.33 25 60.66 25 27 25 C27 46.45 27 67.9 27 90 C59.67 90 92.34 90 126 90 C126 98.25 126 106.5 126 115 C84.42 115 42.84 115 0 115 C0 77.05 0 39.1 0 0 Z " fill="#000000" transform="translate(557,590)"/>
<path d="M0 0 C11.22 0 22.44 0 34 0 C34 47.85 34 95.7 34 145 C22.78 145 11.56 145 0 145 C0 97.15 0 49.3 0 0 Z " fill="#000000" transform="translate(1312,731)"/>
<path d="M0 0 C24.09 0 48.18 0 73 0 C73 4.62 73 9.24 73 14 C54.19 14 35.38 14 16 14 C16 17.96 16 21.92 16 26 C31.18 26 46.36 26 62 26 C62 30.29 62 34.58 62 39 C46.82 39 31.64 39 16 39 C16 43.29 16 47.58 16 52 C34.81 52 53.62 52 73 52 C73 56.62 73 61.24 73 66 C48.91 66 24.82 66 0 66 C0 44.22 0 22.44 0 0 Z " fill="#000000" transform="translate(1034,810)"/>
<path d="M0 0 C9.24 0 18.48 0 28 0 C28 37.95 28 75.9 28 115 C18.76 115 9.52 115 0 115 C0 77.05 0 39.1 0 0 Z " fill="#000000" transform="translate(697,590)"/>
<path d="M0 0 C17 0 17 0 20.8984375 2.640625 C22.2019043 4.36791992 22.2019043 4.36791992 23.375 6.25 C24.32408301 7.54498127 25.2759642 8.83791589 26.23046875 10.12890625 C26.68728027 10.78133301 27.1440918 11.43375977 27.61474609 12.10595703 C29.74495196 15.01856491 32.19885975 17.58192051 34.6875 20.1875 C38.89235384 24.73116221 42.87114942 29.39773826 46.734375 34.234375 C49.73477468 37.89693185 52.88222435 41.43682783 56 45 C56.33 30.15 56.66 15.3 57 0 C62.28 0 67.56 0 73 0 C73 21.78 73 43.56 73 66 C52 66 52 66 44.75 59.6875 C42.94677734 57.5871582 42.94677734 57.5871582 41.7109375 55.80078125 C39.3891268 52.54228484 36.94028121 49.44883696 34.375 46.375 C33.68019531 45.50617187 32.98539063 44.63734375 32.26953125 43.7421875 C29.19169977 40.02336186 25.92918041 36.49125288 22.62841797 32.97021484 C20.52769255 30.71981942 18.71396839 28.57095259 17 26 C16.67 39.2 16.34 52.4 16 66 C10.72 66 5.44 66 0 66 C0 44.22 0 22.44 0 0 Z " fill="#000000" transform="translate(1116,810)"/>
<path d="M0 0 C5.28 0 10.56 0 16 0 C16 17.49 16 34.98 16 53 C29.53 53 43.06 53 57 53 C57 35.51 57 18.02 57 0 C62.28 0 67.56 0 73 0 C73 22.11 73 44.22 73 67 C48.91 67 24.82 67 0 67 C0 44.89 0 22.78 0 0 Z " fill="#000000" transform="translate(1034,731)"/>
<path d="M0 0 C17.49 0 34.98 0 53 0 C53 4.62 53 9.24 53 14 C49.37 14 45.74 14 42 14 C42 12.68 42 11.36 42 10 C31.44 10 20.88 10 10 10 C10 12.64 10 15.28 10 18 C24.19 18 38.38 18 53 18 C53 27.9 53 37.8 53 48 C35.51 48 18.02 48 0 48 C0 42.39 0 36.78 0 31 C3.3 31 6.6 31 10 31 C10 32.98 10 34.96 10 37 C20.56 37 31.12 37 42 37 C42 34.03 42 31.06 42 28 C28.14 28 14.28 28 0 28 C0 18.76 0 9.52 0 0 Z " fill="#000000" transform="translate(1176,888)"/>
<path d="M0 0 C17.49 0 34.98 0 53 0 C53 3.3 53 6.6 53 10 C39.47 10 25.94 10 12 10 C12 12.97 12 15.94 12 19 C22.89 19 33.78 19 45 19 C45 22.3 45 25.6 45 29 C34.11 29 23.22 29 12 29 C12 31.64 12 34.28 12 37 C25.53 37 39.06 37 53 37 C53 40.63 53 44.26 53 48 C35.51 48 18.02 48 0 48 C0 32.16 0 16.32 0 0 Z " fill="#000000" transform="translate(963,888)"/>
<path d="M0 0 C17.49 0 34.98 0 53 0 C53 9.57 53 19.14 53 29 C48.38 29.33 43.76 29.66 39 30 C40.56521704 33.35611581 40.56521704 33.35611581 43 36 C46.41790278 36.85179709 49.44341319 36.90640561 53 37 C53 40.63 53 44.26 53 48 C47.93882125 49.13404005 42.89648922 50.04944621 38 48 C34.62771397 44.64735291 32.34592199 40.54539454 29.87548828 36.51269531 C26.55048672 31.17238751 26.55048672 31.17238751 21.078125 28.58203125 C16.79853413 28.2546636 16.79853413 28.2546636 11 29 C11 35.27 11 41.54 11 48 C7.37 48 3.74 48 0 48 C0 32.16 0 16.32 0 0 Z M11 10 C11 12.97 11 15.94 11 19 C21.56 19 32.12 19 43 19 C43 16.03 43 13.06 43 10 C32.44 10 21.88 10 11 10 Z " fill="#000000" transform="translate(1572,888)"/>
<path d="M0 0 C17.49 0 34.98 0 53 0 C53 9.57 53 19.14 53 29 C48.38 29.33 43.76 29.66 39 30 C40.56521704 33.35611581 40.56521704 33.35611581 43 36 C46.41790278 36.85179709 49.44341319 36.90640561 53 37 C53 40.63 53 44.26 53 48 C47.93882125 49.13404005 42.89648922 50.04944621 38 48 C34.62771397 44.64735291 32.34592199 40.54539454 29.87548828 36.51269531 C26.55048672 31.17238751 26.55048672 31.17238751 21.078125 28.58203125 C16.79853413 28.2546636 16.79853413 28.2546636 11 29 C11 35.27 11 41.54 11 48 C7.37 48 3.74 48 0 48 C0 32.16 0 16.32 0 0 Z M11 10 C11 12.97 11 15.94 11 19 C21.56 19 32.12 19 43 19 C43 16.03 43 13.06 43 10 C32.44 10 21.88 10 11 10 Z " fill="#000000" transform="translate(1024,888)"/>
<path d="M0 0 C17.49 0 34.98 0 53 0 C53 15.84 53 31.68 53 48 C49.04 48 45.08 48 41 48 C41 41.73 41 35.46 41 29 C31.43 29 21.86 29 12 29 C12 35.27 12 41.54 12 48 C8.04 48 4.08 48 0 48 C0 32.16 0 16.32 0 0 Z M12 10 C12 12.97 12 15.94 12 19 C21.57 19 31.14 19 41 19 C41 16.03 41 13.06 41 10 C31.43 10 21.86 10 12 10 Z " fill="#000000" transform="translate(1512,888)"/>
<path d="M0 0 C13 0 13 0 16.5078125 2.640625 C17.41985278 3.81398206 18.29174307 5.01944438 19.125 6.25 C20.1042513 7.5370771 21.08607925 8.82219736 22.0703125 10.10546875 C22.55145508 10.75692871 23.03259766 11.40838867 23.52832031 12.07958984 C25.83066812 15.08394748 28.40277509 17.81352909 31 20.5625 C34.17248816 23.96631542 37.08346742 27.35433427 40 31 C40.33 20.77 40.66 10.54 41 0 C44.96 0 48.92 0 53 0 C53 15.84 53 31.68 53 48 C38 48 38 48 34.125 45.1875 C33.04506867 43.82105627 32.00671642 42.42124671 31 41 C29.54851174 39.22355168 28.08965341 37.45310958 26.625 35.6875 C25.62339844 34.42486328 25.62339844 34.42486328 24.6015625 33.13671875 C20.87202628 28.63999565 16.90814894 24.34238771 13 20 C12.67 29.24 12.34 38.48 12 48 C8.04 48 4.08 48 0 48 C0 32.16 0 16.32 0 0 Z " fill="#000000" transform="translate(1452,888)"/>
<path d="M0 0 C11.199375 -0.2165625 11.199375 -0.2165625 22.625 -0.4375 C24.97189941 -0.50122803 27.31879883 -0.56495605 29.73681641 -0.63061523 C31.60836998 -0.6510698 33.4799548 -0.66890493 35.3515625 -0.68359375 C36.31408936 -0.71940552 37.27661621 -0.75521729 38.26831055 -0.79211426 C44.82764202 -0.7980603 44.82764202 -0.7980603 47.96409607 1.33702087 C51.85239506 5.41380509 52.77458558 8.9565274 52.83203125 14.62109375 C52.8441993 15.67648094 52.8441993 15.67648094 52.85661316 16.75318909 C52.86502312 18.23136441 52.85833089 19.70969654 52.8371582 21.18774414 C52.81257151 23.43097525 52.85729549 25.66556215 52.90820312 27.90820312 C52.90783254 29.3541738 52.90340828 30.80015028 52.89453125 32.24609375 C52.89300049 33.54216553 52.89146973 34.8382373 52.88989258 36.17358398 C51.65782618 41.4713005 49.43942727 44.81655604 45 48 C41.4490552 49.02644552 38.14506971 48.94186177 34.47265625 48.78125 C33.59508667 48.77319336 32.71751709 48.76513672 31.81335449 48.75683594 C28.56220831 48.71525004 25.31226261 48.60355618 22.0625 48.5 C11.1415625 48.2525 11.1415625 48.2525 0 48 C0 32.16 0 16.32 0 0 Z M11 10 C11 18.91 11 27.82 11 37 C20.9 37 30.8 37 41 37 C41 28.09 41 19.18 41 10 C31.1 10 21.2 10 11 10 Z " fill="#000000" transform="translate(1091,888)"/>
<path d="M0 0 C17.16 0 34.32 0 52 0 C52 9.24 52 18.48 52 28 C38.47 28 24.94 28 11 28 C11 34.6 11 41.2 11 48 C7.37 48 3.74 48 0 48 C0 32.16 0 16.32 0 0 Z M10 10 C10 12.64 10 15.28 10 18 C20.56 18 31.12 18 42 18 C42 15.36 42 12.72 42 10 C31.44 10 20.88 10 10 10 Z " fill="#000000" transform="translate(1315,888)"/>
<path d="M0 0 C17.49 0 34.98 0 53 0 C53 3.3 53 6.6 53 10 C39.47 10 25.94 10 12 10 C12 19.24 12 28.48 12 38 C25.53 38 39.06 38 53 38 C53 41.3 53 44.6 53 48 C35.51 48 18.02 48 0 48 C0 32.16 0 16.32 0 0 Z " fill="#000000" transform="translate(1236,888)"/>
<path d="M0 0 C3.96 0 7.92 0 12 0 C12 6.27 12 12.54 12 19 C21.57 19 31.14 19 41 19 C41 12.73 41 6.46 41 0 C44.96 0 48.92 0 53 0 C53 9.57 53 19.14 53 29 C46.73 29 40.46 29 34 29 C34 35.27 34 41.54 34 48 C30.04 48 26.08 48 22 48 C22 41.73 22 35.46 22 29 C14.74 29 7.48 29 0 29 C0 19.43 0 9.86 0 0 Z " fill="#000000" transform="translate(1633,888)"/>
<path d="M0 0 C4.95 0 9.9 0 15 0 C15 22.11 15 44.22 15 67 C10.05 67 5.1 67 0 67 C0 44.89 0 22.78 0 0 Z " fill="#000000" transform="translate(1116,731)"/>
<path d="M0 0 C3.96 0 7.92 0 12 0 C12 12.54 12 25.08 12 38 C25.53 38 39.06 38 53 38 C53 41.3 53 44.6 53 48 C35.51 48 18.02 48 0 48 C0 32.16 0 16.32 0 0 Z " fill="#000000" transform="translate(1374,888)"/>
<path d="M0 0 C3.96 0 7.92 0 12 0 C12 15.84 12 31.68 12 48 C8.04 48 4.08 48 0 48 C0 32.16 0 16.32 0 0 Z " fill="#000000" transform="translate(1434,888)"/>
<path d="M0 0 C3.96 0 7.92 0 12 0 C12 15.84 12 31.68 12 48 C8.04 48 4.08 48 0 48 C0 32.16 0 16.32 0 0 Z " fill="#000000" transform="translate(1296,888)"/>
<path d="M0 0 C3.96 0 7.92 0 12 0 C12 15.84 12 31.68 12 48 C8.04 48 4.08 48 0 48 C0 32.16 0 16.32 0 0 Z " fill="#000000" transform="translate(1151,888)"/>
</svg>
