<?xml version="1.0" encoding="UTF-8"?>
<svg id="Layer_2" data-name="Layer 2" xmlns="http://www.w3.org/2000/svg" viewBox="0 0 949.57 183.1">
  <defs>
    <style>
      .cls-1, .cls-2 {
        fill: #020202;
      }

      .cls-2, .cls-3 {
        fill-rule: evenodd;
      }

      .cls-3 {
        stroke: #000;
        stroke-linecap: round;
        stroke-linejoin: round;
        stroke-width: .1px;
      }
    </style>
  </defs>
  <g id="Layer_1-2" data-name="Layer 1">
    <g>
      <polygon class="cls-1" points="518.95 144.14 518.95 59.43 471.54 59.43 471.54 38.06 590.58 38.06 590.58 59.43 543.17 59.43 543.17 144.14 518.95 144.14"/>
      <polygon class="cls-1" points="727.1 81.38 621.52 81.38 621.53 66.15 621.53 59.4 705.76 59.4 705.76 71.62 727.1 71.62 727.1 38.06 600.19 38.06 600.19 66.14 600.16 100.78 705.76 100.78 705.76 122.04 621.48 122.04 621.52 108.6 600.19 108.6 600.19 122.04 600.19 144.14 727.1 144.14 727.1 100.78 727.1 81.38"/>
      <polygon class="cls-1" points="381.93 79.46 381.93 81.38 445 81.38 445 100.83 381.93 100.83 381.93 122.78 463.17 122.78 463.17 144.14 357.7 144.14 357.7 38.06 463.17 38.06 463.17 59.43 381.93 59.43 381.93 79.46"/>
      <path class="cls-2" d="M241.38,59.43h74.4v21.95h-74.4v-21.95ZM241.38,122.78h74.4v-21.95h-74.4v21.95ZM340,38.06h-122.85v106.09h122.85v-43.32h-18.17v-19.45h18.17v-43.32Z"/>
      <polygon class="cls-1" points="744.8 38.06 744.8 144.14 871.25 144.14 871.25 38.06 847.02 38.06 847.02 122.93 769.03 122.93 769.03 38.06 744.8 38.06"/>
      <path class="cls-1" d="M916.67,46.77v11.46h-19.96v-11.46h19.96ZM916.67,38.06h-27.72v29.05h27.72v4.44h7.76v-24.49h17.37v11.56h-10.35v8.87h18.11v-29.42h-25.14v7.41h-7.76v-7.41Z"/>
      <polygon class="cls-1" points="909.28 97.41 909.28 106.29 888.95 106.29 888.95 76.71 949.57 76.71 949.57 106.29 929.61 106.29 929.61 97.41 941.81 97.41 941.81 85.59 896.71 85.59 896.71 97.41 909.28 97.41"/>
      <path class="cls-1" d="M896.71,122.55h45.1v12.57h-45.1v-12.57ZM888.95,143.99h60.62v-30.31h-60.62v30.31Z"/>
    </g>
    <path class="cls-3" d="M108.72,181.42c-42.8,8.18-85.43-14.96-101.88-55.3C-9.62,85.77,4.66,39.42,40.97,15.33c-.77,4.31-1.53,8.62-2.3,12.93,8.32,1.48,16.65,2.96,24.97,4.44-.16.88-.31,1.75-.47,2.63-.38,2.11-.75,4.22-1.13,6.34-.03.18-.06.35-.09.53-.84-.03-1.61-.05-2.33-.04-36.71.18-60.15,39.22-43.05,71.7,17.1,32.48,62.55,35.26,83.48,5.1,2.89,20.82,5.79,41.65,8.68,62.47ZM86.37,173.04c7.74-3.59,11.11-12.77,7.52-20.51-3.59-7.74-12.77-11.11-20.51-7.52-7.74,3.59-11.11,12.77-7.52,20.51,3.59,7.74,12.77,11.11,20.51,7.52ZM63.71,55.11c-1.34,0-2.69.01-4.04.02-19.06.09-34.74,15.05-35.71,34.09-.97,19.04,13.09,35.52,32.04,37.56,18.95,2.04,36.2-11.08,39.29-29.89,3.09-18.81-9.04-36.76-27.65-40.9-1.31-.29-2.63-.58-3.94-.88ZM119,166.9l31.92-59.81-41.25-7.34,9.33,67.15ZM55.56,7.45c-.61,3.43-1.22,6.86-1.83,10.29,4.06.72,8.12,1.45,12.19,2.17,4.26.76,8.53,1.52,12.79,2.28-.91,5.14-1.83,10.28-2.74,15.42-.41,2.29-.81,4.57-1.22,6.86,10.93,3.49,18.57,9.11,25.16,18.51,10.55-18.48,29.86-14.63,33.1,6.32.37,2.42,2.63,2.82,3.81.68,12.26-22.16,34.34-12.03,33.71,12.3-.06,2.3-.12,4.6-.18,6.9-.02.61-.03,1.23-.05,1.84-4.04-.72-8.08-1.44-12.12-2.16.06-2.3.12-4.6.18-6.9.05-1.91-.11-3.83-.55-5.68-.19-.8-.43-1.59-.73-2.36-.25-.63-.54-1.23-.89-1.81-.25-.41-.54-.81-.86-1.17-.21-.23-.43-.44-.68-.62-.13-.09-.26-.18-.41-.24-.08-.03-.16-.05-.24-.07-.17-.03-.34-.01-.5.02-.19.04-.37.09-.55.16-.28.11-.55.25-.81.4-.37.22-.72.47-1.05.74-.43.35-.82.73-1.2,1.14-.95,1.03-1.74,2.18-2.42,3.4-.94,1.7-2.2,3.22-3.71,4.43-1.19.95-2.53,1.72-3.95,2.25-1.16.43-2.37.71-3.6.83-1.24.12-2.49.06-3.71-.15-1.22-.22-2.42-.6-3.54-1.14-1.11-.53-2.16-1.21-3.09-2.02-1.15-.99-2.15-2.17-2.93-3.48-1-1.66-1.66-3.52-1.96-5.44-.21-1.38-.56-2.74-1.09-4.03-.21-.51-.45-1.01-.73-1.48-.22-.37-.46-.72-.73-1.06-.31-.38-.66-.74-1.08-.99-.15-.09-.3-.16-.47-.19-.16-.03-.32-.02-.48,0-.15.03-.3.07-.45.13-.23.08-.45.19-.66.3-.68.36-1.3.83-1.86,1.36-.83.78-1.54,1.66-2.17,2.6-.76,1.13-1.4,2.33-1.93,3.58-.55,1.3-.99,2.66-1.32,4.03-.33,1.36-.55,2.74-.65,4.14-.09,1.33-.07,2.67.07,3.99.14,1.18.27,2.35.41,3.53,20.58,3.66,41.16,7.32,61.74,10.99-13.75,25.77-27.5,51.53-41.26,77.3,46.12-20.23,67.21-73.93,47.2-120.15C155.47,8.98,101.87-12.36,55.56,7.45ZM115.62,39.36c7.11-6.27,7.79-17.13,1.51-24.24-6.27-7.11-17.13-7.79-24.24-1.51-7.11,6.27-7.79,17.13-1.51,24.24,6.27,7.11,17.13,7.79,24.24,1.51Z"/>
  </g>
</svg>