<?xml version="1.0" encoding="UTF-8"?>
<svg id="Layer_2" data-name="Layer 2" xmlns="http://www.w3.org/2000/svg" viewBox="0 0 253.2 59.4">
  <defs>
    <style>
      .cls-1 {
        fill: #020202;
        fill-rule: evenodd;
      }
    </style>
  </defs>
  <g id="Layer_1-2" data-name="Layer 1">
    <path class="cls-1" d="M106.66,46.07v-26.23h-14.68v-6.62h36.85v6.62h-14.68v26.23h-7.5ZM171.1,32.65v13.42h-39.29v-11h6.6v4.16s26.08,0,26.08,0v-6.58h-32.69v-10.73s0-8.69,0-8.69h39.29v10.39h-6.61v-3.78h-26.07v6.8s32.68,0,32.68,0v6.01ZM64.24,26.05v.59h19.52v6.02h-19.52v6.8h25.15v6.62h-32.65V13.23h32.65v6.62h-25.15v6.2ZM20.73,19.85h23.03v6.8h-23.03v-6.8ZM20.73,39.46h23.03v-6.8h-23.03v6.8ZM51.26,13.23H13.23v32.84h38.03v-13.41h-5.63v-6.02h5.63v-13.41ZM184.08,13.23v26.27h24.14V13.23h7.5v32.84h-39.15V13.23h7.5ZM229.79,15.93v3.55h-6.18v-3.55h6.18ZM229.79,13.23h-8.58v8.99h8.58v1.37h2.4v-7.58h5.38v3.58h-3.2v2.75h5.61v-9.11h-7.78v2.29h-2.4v-2.29ZM0,59.26l253.2.15V.15L0,0v59.26ZM227.5,31.61v2.75h-6.29v-9.15h18.77v9.15h-6.18v-2.75h3.78v-3.66h-13.96v3.66h3.89ZM223.61,39.39h13.96v3.89h-13.96v-3.89ZM221.2,46.02h18.77v-9.38h-18.77v9.38Z"/>
  </g>
</svg>